<svg width="96" height="50" viewBox="0 0 96 50" fill="none" xmlns="http://www.w3.org/2000/svg">
<path d="M84.1888 0H11.129C4.98324 0 0 4.54768 0 10.1563V39.8437C0 45.4523 4.98324 50 11.129 50H84.1888C90.3346 50 95.3179 45.4523 95.3179 39.8437V10.1563C95.3179 4.54768 90.3346 0 84.1888 0Z" fill="#E20303"/>
<path d="M39.2157 32.9838V38.6711C39.2157 39.2192 38.8975 39.5095 38.2969 39.5095H37.0184C36.4178 39.5095 36.0997 39.2192 36.0997 38.6711V26.165C36.0997 25.6169 36.4178 25.3265 37.0184 25.3265H37.9758C38.4545 25.3265 38.8143 25.5083 39.0551 25.9099L42.6112 31.9988C42.7717 32.2539 42.8907 32.3624 43.1315 32.3624C43.3723 32.3624 43.5299 32.2159 43.5299 31.8875V26.1623C43.5299 25.6141 43.8481 25.3238 44.4487 25.3238H45.7272C46.3278 25.3238 46.6459 25.6141 46.6459 26.1623V38.6684C46.6459 39.2165 46.3278 39.5068 45.7272 39.5068H44.6479C44.2881 39.5068 43.9283 39.325 43.6905 38.9234L40.1344 32.8345C39.9739 32.5795 39.8163 32.4709 39.6141 32.4709C39.3346 32.4709 39.2157 32.6527 39.2157 32.9811V32.9838ZM12.0071 34.989L13.6453 34.7339C14.2043 34.6607 14.6027 34.8425 14.7246 35.3906C14.9239 36.3755 15.4828 36.8857 16.6038 36.8857C17.6414 36.8857 18.1618 36.3755 18.1618 35.6103C18.1618 34.6986 17.6415 34.2971 16.4046 33.9335L15.0071 33.5319C12.6106 32.84 11.4511 31.3801 11.4511 29.3017C11.4511 26.9329 13.2885 25.1447 16.2856 25.1447C19.2827 25.1447 21.1589 26.6398 21.5989 28.6803C21.7178 29.2284 21.4384 29.554 20.7991 29.6653L19.2797 29.885C18.6791 29.9583 18.361 29.7385 18.2004 29.2284C17.9209 28.2814 17.243 27.9531 16.4432 27.9531C15.6047 27.9531 14.9655 28.4632 14.9655 29.2664C14.9655 30.0696 15.4055 30.5064 16.6424 30.87L18.3996 31.3801C20.9567 32.11 21.7149 33.7137 21.7149 35.3553C21.7149 37.3605 20.3174 39.694 16.4819 39.694C13.6453 39.694 11.7662 38.2369 11.2875 35.9739C11.1686 35.4258 11.4065 35.1002 12.0071 34.989ZM30.0668 24.6699L31.0242 23.8667C31.1045 23.7934 31.2235 23.7202 31.3037 23.7202C31.5832 23.7202 31.6635 24.0105 31.6635 24.4501C31.6635 25.1067 31.1848 25.3971 30.5842 25.3971C30.2244 25.3971 29.8647 25.2505 29.8647 24.9955C29.8647 24.8869 29.8647 24.849 30.0639 24.6672L30.0668 24.6699ZM25.711 24.7784C25.711 24.3036 26.0291 24.0485 26.5108 24.0485C27.0311 24.0485 27.6704 24.4854 27.6704 24.7784C27.6704 25.142 26.9508 25.4703 26.4721 25.4703C26.0737 25.4703 25.7139 25.2153 25.7139 24.7784H25.711ZM29.3057 22.7732C29.5852 22.8085 29.826 22.8465 29.9449 22.8817L28.7467 23.94C27.9885 22.9197 27.1887 22.4449 26.2283 22.4449C24.9885 22.4449 24.0697 23.4651 24.0697 24.7784C24.0697 26.0917 24.9885 27.0767 26.3473 27.0767C27.1857 27.0767 27.825 26.6398 28.4256 26.1297L28.6248 25.9479C29.1451 26.6398 29.9033 27.1879 30.9023 27.1879C32.2611 27.1879 33.2988 26.1297 33.2988 24.7459C33.2988 23.9074 32.9391 23.1775 32.4187 22.6321L32.8974 22.2305C33.0966 22.084 33.1769 21.8669 33.1769 21.6471V20.7734C33.1769 20.5184 33.058 20.4098 32.8588 20.4098C32.6982 20.4098 32.6596 20.4451 32.5406 20.5563L31.2235 21.7231C30.6229 21.3948 29.8647 21.213 29.3057 21.213C28.9875 21.213 28.9073 21.3948 28.9073 21.6498V22.2685C28.9073 22.5588 29.0678 22.7434 29.3057 22.7786V22.7732ZM28.6278 36.8097C27.4295 36.8097 26.7903 36.1178 26.7903 34.9863V29.554C26.7903 29.0059 26.4721 28.7156 25.8715 28.7156H24.4325C23.8319 28.7156 23.5137 29.0059 23.5137 29.554V35.1328C23.5137 38.085 25.592 39.7266 28.6278 39.7266C31.6635 39.7266 33.7418 38.085 33.7418 35.1328V29.554C33.7418 29.0059 33.4237 28.7156 32.8231 28.7156H31.384C30.7834 28.7156 30.4653 29.0059 30.4653 29.554V34.9863C30.4653 36.1178 29.826 36.8097 28.6278 36.8097ZM28.6278 17.341C27.4295 17.341 26.7903 16.649 26.7903 15.5175V10.0853C26.7903 9.53719 26.4721 9.24685 25.8715 9.24685H24.4325C23.8319 9.24685 23.5137 9.53719 23.5137 10.0853V15.6641C23.5137 18.6163 25.592 20.2579 28.6278 20.2579C31.6635 20.2579 33.7418 18.6163 33.7418 15.6641V10.0853C33.7418 9.53719 33.4237 9.24685 32.8231 9.24685H31.384C30.7834 9.24685 30.4653 9.53719 30.4653 10.0853V15.5175C30.4653 16.649 29.826 17.341 28.6278 17.341ZM39.2157 16.9041V22.5914C39.2157 23.1395 38.8975 23.4298 38.2969 23.4298H37.0184C36.4178 23.4298 36.0997 23.1395 36.0997 22.5914V10.0853C36.0997 9.53719 36.4178 9.24685 37.0184 9.24685H37.9758C38.4545 9.24685 38.8143 9.42865 39.0551 9.83024L42.6112 15.9191C42.7717 16.1742 42.8907 16.2827 43.1315 16.2827C43.3723 16.2827 43.5299 16.1362 43.5299 15.8079V10.0826C43.5299 9.53448 43.8481 9.24414 44.4487 9.24414H45.7272C46.3278 9.24414 46.6459 9.53448 46.6459 10.0826V22.5887C46.6459 23.1368 46.3278 23.4271 45.7272 23.4271H44.6479C44.2881 23.4271 43.9283 23.2453 43.6905 22.8438L40.1344 16.7549C39.9739 16.4998 39.8163 16.3913 39.6141 16.3913C39.3346 16.3913 39.2157 16.5731 39.2157 16.9014V16.9041ZM21.3967 11.3986V10.0853C21.3967 9.53719 21.0786 9.24685 20.478 9.24685H13.9248C13.3242 9.24685 13.0061 9.53719 13.0061 10.0853V22.5914C13.0061 23.1395 13.3242 23.4298 13.9248 23.4298H15.4442C16.0448 23.4298 16.3629 23.1395 16.3629 22.5914V19.566C16.3629 19.0178 16.6811 18.7275 17.2817 18.7275H19.8387C20.4393 18.7275 20.7575 18.4372 20.7575 17.8891V16.5758C20.7575 16.0277 20.4393 15.7373 19.8387 15.7373H17.2817C16.6811 15.7373 16.3629 15.447 16.3629 14.8989V13.0755C16.3629 12.5274 16.6811 12.237 17.2817 12.237H20.478C21.0786 12.237 21.3967 11.9467 21.3967 11.3986Z" fill="white"/>
<path d="M82.9621 34.2486L67.5218 36.8834C66.9212 36.9919 66.6804 37.3229 66.719 37.871L66.7993 38.7122C66.8379 39.2983 67.2007 39.5913 67.8013 39.5913H83.1197C84.2436 39.5913 84.9245 39.0432 84.9245 38.0176V35.6379C84.9245 34.539 84.1217 34.0641 82.9592 34.2459L82.9621 34.2486ZM80.3159 24.4776L65.5981 32.1268C65.0778 32.4198 64.9558 32.8214 65.2383 33.3342L65.6397 34.1021C65.9192 34.6149 66.3206 34.7615 66.8825 34.577L82.4418 29.6006C83.4854 29.2722 83.9671 28.5749 83.6044 27.5872L82.6826 25.1723C82.2812 24.1466 81.3179 23.9648 80.3159 24.4776ZM72.8559 16.1692L61.9082 28.1C61.5068 28.5396 61.5871 28.9412 62.0272 29.3455L62.6694 29.9316C63.1094 30.3332 63.5525 30.3712 64.0341 30.0049L77.3099 19.9761C78.193 19.3167 78.3119 18.4376 77.4704 17.7077L75.3445 15.9141C74.5031 15.2195 73.5814 15.4013 72.8589 16.1692H72.8559ZM59.6604 26.6375L67.9232 13.7922C68.5238 12.8398 68.2443 11.9987 67.1204 11.6324L64.4742 10.7912C63.3919 10.4629 62.6307 10.8997 62.268 11.8522L56.8536 25.468C56.6544 25.9809 56.8536 26.3092 57.4156 26.567L58.3373 26.9686C58.8993 27.2236 59.3393 27.1504 59.6604 26.6402V26.6375ZM54.2877 24.8087L57.0945 11.1928C57.2937 10.1319 56.7733 9.39923 55.5692 9.36395L53.0835 9.25542C51.9596 9.22014 51.3203 9.80353 51.3203 10.8292V24.5536C51.3203 25.1017 51.6414 25.4328 52.2837 25.468L53.2054 25.5413C53.806 25.5766 54.1687 25.3948 54.2877 24.8087ZM52.9229 39.5941H61.4652C62.5088 39.5941 63.1511 39.0459 62.9905 38.0935C62.268 33.3722 58.1767 29.6033 52.9646 28.9439C51.9209 28.7974 51.3203 29.3835 51.3203 30.3359V38.1315C51.3203 39.0839 51.8823 39.5968 52.9259 39.5968L52.9229 39.5941Z" fill="#FFEA2E"/>
</svg>
