<svg width="40" height="40" viewBox="0 0 40 40" fill="none" xmlns="http://www.w3.org/2000/svg">
<circle cx="20" cy="20" r="20" fill="#F6F8FA"/>
<g clip-path="url(#clip0_18053_37091)">
<path d="M25.8337 19.1666L16.5254 19.1666L20.5921 15.0999C20.9171 14.7749 20.9171 14.2416 20.5921 13.9166C20.2671 13.5916 19.7421 13.5916 19.4171 13.9166L13.9254 19.4083C13.6004 19.7333 13.6004 20.2583 13.9254 20.5833L19.4171 26.0749C19.7421 26.3999 20.2671 26.3999 20.5921 26.0749C20.9171 25.7499 20.9171 25.2249 20.5921 24.8999L16.5254 20.8333L25.8337 20.8333C26.2921 20.8333 26.6671 20.4583 26.6671 19.9999C26.6671 19.5416 26.2921 19.1666 25.8337 19.1666Z" fill="#4872F2"/>
</g>
<defs>
<clipPath id="clip0_18053_37091">
<rect width="20" height="20" fill="white" transform="translate(10 10)"/>
</clipPath>
</defs>
</svg>
