<svg width="20" height="20" viewBox="0 0 20 20" fill="none" xmlns="http://www.w3.org/2000/svg">
<g clip-path="url(#clip0_19714_1248)">
<path d="M9.99902 2.1665C11.0277 2.1665 12.0467 2.36952 12.9971 2.76318C13.9472 3.15678 14.8108 3.73325 15.5381 4.46045C16.2655 5.18784 16.8427 6.05206 17.2363 7.00244C17.6299 7.95266 17.833 8.97101 17.833 9.99951C17.833 11.5488 17.3734 13.0639 16.5127 14.3521C15.652 15.6402 14.4284 16.6439 12.9971 17.2368C11.5657 17.8297 9.99022 17.9854 8.4707 17.6831C6.95132 17.3808 5.55539 16.634 4.45996 15.5386C3.36463 14.4431 2.61863 13.0472 2.31641 11.5278C2.01422 10.0084 2.16988 8.4337 2.7627 7.00244C3.35558 5.57109 4.35929 4.34755 5.64746 3.48682C6.93555 2.62614 8.44985 2.16657 9.99902 2.1665ZM12.7422 3.37842C11.4327 2.83603 9.99167 2.69474 8.60156 2.97119C7.21137 3.24772 5.93392 3.92985 4.93164 4.93213C3.92937 5.93441 3.24723 7.21185 2.9707 8.60205C2.69425 9.99216 2.83554 11.4332 3.37793 12.7427C3.92033 14.0521 4.83917 15.171 6.01758 15.9585C7.19604 16.7459 8.58171 17.1664 9.99902 17.1665C11.8997 17.1665 13.7234 16.4119 15.0674 15.0679C16.4114 13.7239 17.166 11.9002 17.166 9.99951C17.166 8.58219 16.7454 7.19653 15.958 6.01807C15.1706 4.83966 14.0516 3.92082 12.7422 3.37842Z" fill="#2E2E32" stroke="#B3B9C0"/>
<path fill-rule="evenodd" clip-rule="evenodd" d="M10.4058 11.3947C10.4058 11.574 10.2604 11.7194 10.0811 11.7194H9.47145C9.25657 11.7194 9.0815 11.5469 9.07834 11.332C9.02706 10.4775 9.35751 9.96484 10.1437 9.50342C10.8502 9.07617 11.0895 8.77425 11.0895 8.21029C11.0895 7.61784 10.6109 7.19059 9.89305 7.19059C9.40266 7.19059 9.02895 7.38841 8.821 7.72652C8.63349 8.03139 8.36134 8.32992 8.00342 8.32992C7.61926 8.32992 7.30037 8.00564 7.4113 7.63785C7.70693 6.65768 8.5808 6 9.96712 6C11.5282 6 12.5708 6.90007 12.5708 8.15902C12.5708 9.0306 12.1378 9.64014 11.363 10.1016C10.6166 10.5402 10.4058 10.8307 10.4058 11.3947ZM10.755 13.5149C10.755 14.0618 10.3903 14.4206 9.80922 14.4206C9.23949 14.4206 8.86347 14.0618 8.86347 13.5149C8.86347 12.9623 9.23949 12.6034 9.80922 12.6034C10.3903 12.6034 10.755 12.9623 10.755 13.5149Z" fill="#B3B9C0"/>
</g>
<defs>
<clipPath id="clip0_19714_1248">
<rect width="20" height="20" fill="white"/>
</clipPath>
</defs>
</svg>
